# xmcd CD database file generated by Grip 3.0.7
# 
# Track frame offsets:
#       182
#       12452
#       23780
#       41272
#       52852
#       75747
#       88102
#       102827
#       128232
#       141225
#       151502
#       175855
#       186805
#       206362
#       225922
#       239132
#       250307
#       277765
#       295335
#       327177
# 
# Disc length: 4583 seconds
# 
# Revision: 3
# Processed by: cddbd v1.5PL3 Copyright (c) Steve Scherf et al.
# Submitted via: Grip 3.0.7
# 
DISCID=0311e514
DTITLE=James Cotton - The Best of the Verve Years
DYEAR=1995
DGENRE=Blues
TTITLE0=Good Time Charlie
TTITLE1=Turn on Your Lovelight
TTITLE2=Something on Your Mind
TTITLE3=Don't Start Me Talkin'
TTITLE4=Jelly, Jelly
TTITLE5=Off the Wall
TTITLE6=Feelin' Good
TTITLE7=Sweet Sixteen
TTITLE8=Knock on Wood
TTITLE9=Oh, Why?
TTITLE10=Blues in My Sleep
TTITLE11=Soul Survivor
TTITLE12=Fallin' Rain
TTITLE13=Heart Attack
TTITLE14=Lovin' Cup
TTITLE15=She's Murder (aka "Murder in the First Degree")
TTITLE16=The Creeper
TTITLE17=Down at Your Buryin'
TTITLE18=Back to St. Louis
TTITLE19=The Coach's Better Days
EXTD=
EXTT0=
EXTT1=
EXTT2=
EXTT3=
EXTT4=
EXTT5=
EXTT6=
EXTT7=
EXTT8=
EXTT9=
EXTT10=
EXTT11=
EXTT12=
EXTT13=
EXTT14=
EXTT15=
EXTT16=
EXTT17=
EXTT18=
EXTT19=
PLAYORDER=
